<svg width="32" height="32" viewBox="0 0 32 32" fill="none" xmlns="http://www.w3.org/2000/svg">
<path d="M16 2C13.3478 2 10.8043 3.05357 8.92893 4.92893C7.05357 6.8043 6 9.34784 6 12C6 19.3 14.88 29.25 15.26 29.67C15.3538 29.7748 15.4686 29.8585 15.597 29.9159C15.7254 29.9733 15.8644 30.0029 16.005 30.0029C16.1456 30.0029 16.2846 29.9733 16.413 29.9159C16.5414 29.8585 16.6562 29.7748 16.75 29.67C17.12 29.25 26 19.3 26 12C26 10.6868 25.7413 9.38642 25.2388 8.17317C24.7362 6.95991 23.9997 5.85752 23.0711 4.92893C22.1425 4.00035 21.0401 3.26375 19.8268 2.7612C18.6136 2.25866 17.3132 2 16 2V2ZM16 27.46C13.89 24.93 8 17.39 8 12C8 9.87827 8.84285 7.84344 10.3431 6.34315C11.8434 4.84285 13.8783 4 16 4C18.1217 4 20.1566 4.84285 21.6569 6.34315C23.1571 7.84344 24 9.87827 24 12C24 17.39 18.11 24.93 16 27.46Z" fill="#69A54D"/>
<path d="M16 7C15.2089 7 14.4355 7.2346 13.7777 7.67412C13.1199 8.11365 12.6072 8.73836 12.3045 9.46926C12.0017 10.2002 11.9225 11.0044 12.0769 11.7804C12.2312 12.5563 12.6122 13.269 13.1716 13.8284C13.731 14.3878 14.4437 14.7688 15.2196 14.9231C15.9956 15.0775 16.7998 14.9983 17.5307 14.6955C18.2616 14.3928 18.8864 13.8801 19.3259 13.2223C19.7654 12.5645 20 11.7911 20 11C20 9.93913 19.5786 8.92172 18.8284 8.17157C18.0783 7.42143 17.0609 7 16 7ZM16 13C15.6044 13 15.2178 12.8827 14.8889 12.6629C14.56 12.4432 14.3036 12.1308 14.1522 11.7654C14.0009 11.3999 13.9613 10.9978 14.0384 10.6098C14.1156 10.2219 14.3061 9.86549 14.5858 9.58579C14.8655 9.30608 15.2219 9.1156 15.6098 9.03843C15.9978 8.96126 16.3999 9.00086 16.7654 9.15224C17.1308 9.30362 17.4432 9.55996 17.6629 9.88886C17.8827 10.2178 18 10.6044 18 11C18 11.5304 17.7893 12.0391 17.4142 12.4142C17.0391 12.7893 16.5304 13 16 13Z" fill="#69A54D"/>
</svg>
